<svg width="10" height="17" viewBox="0 0 10 17" fill="none" xmlns="http://www.w3.org/2000/svg">
  <path
    d="M0.679688 14.6797C0.460938 14.8984 0.351562 15.1719 0.351562 15.5C0.351562 15.8281 0.460938 16.1016 0.679688 16.3203C0.898438 16.5391 1.17188 16.6484 1.5 16.6484C1.82812 16.6484 2.10156 16.5391 2.32031 16.3203L9.32031 9.32031C9.53906 9.10156 9.64844 8.82812 9.64844 8.5C9.64844 8.17188 9.53906 7.89844 9.32031 7.67969L2.32031 0.679688C2.10156 0.460938 1.82812 0.351562 1.5 0.351562C1.17188 0.351562 0.898438 0.460938 0.679688 0.679688C0.460938 0.898438 0.351562 1.17188 0.351562 1.5C0.351562 1.82812 0.460938 2.10156 0.679688 2.32031L6.85938 8.5L0.679688 14.6797Z"
    fill="black" />
</svg>
