<svg width="18" height="25" viewBox="0 0 18 25" fill="none" xmlns="http://www.w3.org/2000/svg">
  <path
    d="M2.82031 2.54688C4.53385 1.01562 6.59375 0.25 9 0.25C11.4062 0.25 13.4661 1.01562 15.1797 2.54688C16.8932 4.07812 17.75 5.9375 17.75 8.125C17.75 9.4375 17.4401 10.9141 16.8203 12.5547C16.237 14.1589 15.5078 15.6536 14.6328 17.0391C13.7943 18.4245 12.9375 19.7188 12.0625 20.9219C11.224 22.0885 10.4948 23.0182 9.875 23.7109L9 24.75C8.74479 24.4948 8.41667 24.1302 8.01562 23.6562C7.65104 23.2188 6.95833 22.3255 5.9375 20.9766C4.95312 19.5911 4.07812 18.2604 3.3125 16.9844C2.54688 15.7083 1.83594 14.25 1.17969 12.6094C0.559896 10.9323 0.25 9.4375 0.25 8.125C0.25 5.9375 1.10677 4.07812 2.82031 2.54688ZM6.53906 11.4609C7.23177 12.1536 8.05208 12.5 9 12.5C9.94792 12.5 10.7682 12.1536 11.4609 11.4609C12.1536 10.7682 12.5 9.94792 12.5 9C12.5 8.05208 12.1536 7.23177 11.4609 6.53906C10.7682 5.84635 9.94792 5.5 9 5.5C8.05208 5.5 7.23177 5.84635 6.53906 6.53906C5.84635 7.23177 5.5 8.05208 5.5 9C5.5 9.94792 5.84635 10.7682 6.53906 11.4609Z"
    fill="black" />
</svg>
