<svg width="121" height="135" viewBox="0 0 121 135" fill="none" xmlns="http://www.w3.org/2000/svg">
  <g filter="url(#filter0_d)">
    <path
      d="M101.572 19.9617C96.3454 13.7967 89.815 8.7723 82.4156 5.30955C75.152 1.9147 67.0466 0 58.4932 0C27.2936 0 2 25.2985 2 56.504C2 70.2192 6.88766 82.7801 15.0066 92.5709C20.1658 98.7903 26.6284 103.883 33.987 107.427C41.4 110.998 49.7226 113.008 58.5068 113.008C58.9548 113.008 59.4164 112.981 59.8645 112.967V126.614C59.8645 126.614 103.27 112.207 112.896 71.7808C114.267 66.9194 115 61.7863 115 56.4904C115 42.5715 109.936 29.8204 101.572 19.9617Z"
      fill="#3BB549" />
    <g filter="url(#filter1_d)">
      <path
        d="M96.9836 56.8434C96.9836 49.3476 94.8384 42.3542 91.132 36.4472C85.8098 27.9465 77.2429 21.6863 67.1824 19.3643C64.3856 18.7125 61.4937 18.3594 58.4933 18.3594C48.6908 18.3594 39.7436 22.0394 32.9417 28.0687C32.6701 28.3131 32.4122 28.5711 32.1406 28.8155C24.6734 35.8361 20.0029 45.7898 20.0029 56.8434C20.0029 64.0949 22.0123 70.871 25.5015 76.6694C32.2357 87.8588 44.4955 95.3411 58.4933 95.3411C69.3547 95.3411 79.1572 90.8327 86.1628 83.5949C92.8562 76.6558 96.9836 67.2317 96.9836 56.8434Z"
        fill="url(#paint0_radial)" />
    </g>
    <g filter="url(#filter2_d)">
      <path
        d="M65.336 53.6385C64.6029 54.0188 64.5621 54.3447 63.8969 54.6298C63.4081 54.8335 62.5935 54.8743 61.1136 53.9237C60.557 53.5163 59.6337 52.9731 58.439 52.9052C57.0134 52.8373 55.9816 53.4892 54.8819 54.1681C48.9759 57.7938 48.6365 57.1692 48.0663 58.3234C46.9937 60.4826 48.4329 62.1121 46.9937 64.6514C46.8036 64.9909 46.3556 65.697 46.6271 66.0909C46.7493 66.2674 47.2517 66.1995 48.5415 66.2266C52.0307 66.281 52.6688 64.7601 55.5471 64.8008C58.4254 64.8415 57.6787 66.9599 58.3847 67.6796C59.0907 68.3994 64.4807 68.7524 66.8295 66.4982C68.0378 65.344 68.9475 64.1762 69.5448 62.8318C69.8571 62.1257 70.4952 60.5097 70.4409 58.3506C70.4002 56.5309 70.3459 54.7792 69.0289 53.8694C68.0107 53.1225 66.4086 53.0682 65.336 53.6385Z"
        fill="#3BB549" />
    </g>
    <g filter="url(#filter3_d)">
      <path
        d="M48.7452 19.6086C42.7985 21.1702 37.4085 24.1034 32.9553 28.0686C32.6838 28.313 32.4258 28.571 32.1543 28.8154C24.687 35.836 20.0166 45.7897 20.0166 56.8433C20.0166 59.3691 20.2746 61.827 20.7362 64.2034C22.0939 63.4565 25.5288 61.3245 26.8593 58.0519C27.1037 57.4408 27.3888 57.563 27.5246 54.304C28.122 39.9777 32.3851 50.3524 37.5307 54.8064C42.6899 59.2741 44.4006 48.7364 42.6492 45.5317C40.8978 42.3269 44.74 40.1814 49.1525 41.1184C53.565 42.0554 50.8496 32.7263 47.4282 26.4798C46.3964 24.5922 46.5457 23.7231 46.7494 22.6911C47.0073 21.4961 47.7541 20.4641 48.7452 19.6086Z"
        fill="#3BB549" />
    </g>
    <g filter="url(#filter4_d)">
      <path
        d="M90.7788 54.2227C88.0363 51.8463 84.6556 47.4195 85.6739 43.9839C86.1491 42.3815 87.6561 41.4717 89.8013 40.1952C90.7381 39.6385 91.6749 39.2175 92.5302 38.9052C92.0957 38.0768 91.6206 37.2485 91.1318 36.4609C85.9047 28.1095 77.5414 21.9309 67.6982 19.5002C65.8246 21.6457 64.5619 24.4295 64.6298 27.1861C64.6841 29.1823 65.4037 29.4946 71.6898 39.4619C75.4234 45.369 75.6542 46.0208 77.1884 47.4195C79.9173 49.9045 81.8317 50.2576 83.1893 52.9327C83.4201 53.3944 83.5695 53.8018 83.6509 54.182C84.2076 56.6535 84.0854 58.2966 84.1397 59.2335C84.3162 62.2346 88.5386 62.7506 91.7427 66.3084C93.0054 67.6935 93.82 69.2416 94.3767 70.7217C95.9244 66.7158 96.8205 62.384 96.9427 57.8484C95.0555 57.0744 92.8696 56.0288 90.7788 54.2227Z"
        fill="#3BB549" />
    </g>
    <path
      d="M39.5673 102.266L67.6171 98.043C67.6171 98.043 74.8128 97.3776 79.2524 92.7199L97.2417 75.3382C97.2417 75.3382 99.7942 72.5409 97.812 69.5262C97.812 69.5262 95.5446 66.6881 92.259 69.3225L77.5689 81.2317C71.9074 87.0844 63.9785 90.7373 55.1943 90.7373C43.8712 90.7373 33.9465 84.6809 28.5022 75.637C27.2939 76.7776 26.0991 78.1763 25.0537 79.8602L14.6946 93.1816C19.5008 98.9664 25.5153 103.719 32.3716 107.019C33.5121 105.43 35.9016 102.728 39.5673 102.266Z"
      fill="white" />
    <path
      d="M72.2739 83.4862L51.5963 83.4454C51.5963 83.4454 48.7588 83.7306 48.1342 80.3086C48.1342 80.3086 47.7269 76.968 52.248 76.2755L65.5941 72.935C65.5941 72.935 69.0969 72.3239 68.8932 68.9833C68.8932 68.9833 69.1376 65.0317 62.8787 66.023C61.5753 66.2267 37.7615 70.5857 37.7615 70.5857C37.7615 70.5857 32.9825 71.4412 28.5293 75.6373C33.9736 84.6811 43.8847 90.7376 55.2214 90.7376C64.0056 90.7376 71.9344 87.0847 77.596 81.232L76.985 81.7344C74.9485 83.3096 72.2739 83.4862 72.2739 83.4862Z"
      fill="white" />
  </g>
  <defs>
    <filter id="filter0_d" x="0" y="0" width="121" height="134.614" filterUnits="userSpaceOnUse"
      color-interpolation-filters="sRGB">
      <feFlood flood-opacity="0" result="BackgroundImageFix" />
      <feColorMatrix in="SourceAlpha" type="matrix" values="0 0 0 0 0 0 0 0 0 0 0 0 0 0 0 0 0 0 127 0"
        result="hardAlpha" />
      <feOffset dx="2" dy="4" />
      <feGaussianBlur stdDeviation="2" />
      <feComposite in2="hardAlpha" operator="out" />
      <feColorMatrix type="matrix" values="0 0 0 0 0 0 0 0 0 0 0 0 0 0 0 0 0 0 0.25 0" />
      <feBlend mode="normal" in2="BackgroundImageFix" result="effect1_dropShadow" />
      <feBlend mode="normal" in="SourceGraphic" in2="effect1_dropShadow" result="shape" />
    </filter>
    <filter id="filter1_d" x="12.0029" y="10.3594" width="92.9806" height="92.9817" filterUnits="userSpaceOnUse"
      color-interpolation-filters="sRGB">
      <feFlood flood-opacity="0" result="BackgroundImageFix" />
      <feColorMatrix in="SourceAlpha" type="matrix" values="0 0 0 0 0 0 0 0 0 0 0 0 0 0 0 0 0 0 127 0"
        result="hardAlpha" />
      <feOffset />
      <feGaussianBlur stdDeviation="4" />
      <feColorMatrix type="matrix" values="0 0 0 0 1 0 0 0 0 1 0 0 0 0 1 0 0 0 1 0" />
      <feBlend mode="normal" in2="BackgroundImageFix" result="effect1_dropShadow" />
      <feBlend mode="normal" in="SourceGraphic" in2="effect1_dropShadow" result="shape" />
    </filter>
    <filter id="filter2_d" x="43.542" y="49.9004" width="31.9022" height="23.3262" filterUnits="userSpaceOnUse"
      color-interpolation-filters="sRGB">
      <feFlood flood-opacity="0" result="BackgroundImageFix" />
      <feColorMatrix in="SourceAlpha" type="matrix" values="0 0 0 0 0 0 0 0 0 0 0 0 0 0 0 0 0 0 127 0"
        result="hardAlpha" />
      <feOffset dx="1" dy="1" />
      <feGaussianBlur stdDeviation="2" />
      <feColorMatrix type="matrix" values="0 0 0 0 0 0 0 0 0 0 0 0 0 0 0 0 0 0 0.25 0" />
      <feBlend mode="normal" in2="BackgroundImageFix" result="effect1_dropShadow" />
      <feBlend mode="normal" in="SourceGraphic" in2="effect1_dropShadow" result="shape" />
    </filter>
    <filter id="filter3_d" x="17.0166" y="16.6086" width="39.4317" height="52.5948" filterUnits="userSpaceOnUse"
      color-interpolation-filters="sRGB">
      <feFlood flood-opacity="0" result="BackgroundImageFix" />
      <feColorMatrix in="SourceAlpha" type="matrix" values="0 0 0 0 0 0 0 0 0 0 0 0 0 0 0 0 0 0 127 0"
        result="hardAlpha" />
      <feOffset dx="1" dy="1" />
      <feGaussianBlur stdDeviation="2" />
      <feColorMatrix type="matrix" values="0 0 0 0 0 0 0 0 0 0 0 0 0 0 0 0 0 0 0.25 0" />
      <feBlend mode="normal" in2="BackgroundImageFix" result="effect1_dropShadow" />
      <feBlend mode="normal" in="SourceGraphic" in2="effect1_dropShadow" result="shape" />
    </filter>
    <filter id="filter4_d" x="61.6272" y="16.5002" width="40.3155" height="59.2215" filterUnits="userSpaceOnUse"
      color-interpolation-filters="sRGB">
      <feFlood flood-opacity="0" result="BackgroundImageFix" />
      <feColorMatrix in="SourceAlpha" type="matrix" values="0 0 0 0 0 0 0 0 0 0 0 0 0 0 0 0 0 0 127 0"
        result="hardAlpha" />
      <feOffset dx="1" dy="1" />
      <feGaussianBlur stdDeviation="2" />
      <feColorMatrix type="matrix" values="0 0 0 0 0 0 0 0 0 0 0 0 0 0 0 0 0 0 0.25 0" />
      <feBlend mode="normal" in2="BackgroundImageFix" result="effect1_dropShadow" />
      <feBlend mode="normal" in="SourceGraphic" in2="effect1_dropShadow" result="shape" />
    </filter>
    <radialGradient id="paint0_radial" cx="0" cy="0" r="1" gradientUnits="userSpaceOnUse"
      gradientTransform="translate(58.4983 56.837) scale(38.4856 38.4929)">
      <stop offset="0.1122" stop-color="#008CD0" />
      <stop offset="0.9987" stop-color="#2861AE" />
    </radialGradient>
  </defs>
</svg>
