<svg width="32" height="32" fill="none" xmlns="http://www.w3.org/2000/svg">
    <path d="M32 25.597A6.406 6.406 0 0 1 25.597 32H6.403A6.406 6.406 0 0 1 0 25.597V6.403A6.398 6.398 0 0 1 6.403 0h19.194A6.398 6.398 0 0 1 32 6.403v19.194z" fill="#31A836"/>
    <path d="M25.367 2.44H6.62a4.339 4.339 0 0 0-4.332 4.346v10.3a4.339 4.339 0 0 0 4.332 4.345h6.453l2.199 3.591s.025.039.076.103c.128.217.37.37.64.37a.752.752 0 0 0 .638-.37c.051-.064.077-.103.077-.103l2.198-3.59h6.454a4.339 4.339 0 0 0 4.332-4.346v-10.3a4.328 4.328 0 0 0-4.32-4.345z" fill="#fff"/>
    <path d="M8.384 9.994s-.754 0-1.432.664V8H5.278v6.99h1.7v-.55s.396.717 1.406.717c0 0 2.364-.09 2.364-2.607 0 0-.09-2.556-2.364-2.556zm-.371 3.693c-.6 0-1.074-.486-1.074-1.074 0-.6.486-1.073 1.074-1.073.6 0 1.073.486 1.073 1.073 0 .588-.472 1.074-1.073 1.074zM11.284 7.834v1.623s.767-.038.767 1.393v4.14h1.623v-4.524s.064-2.632-2.39-2.632zM17.623 10.02s-2.773 0-2.773 2.593c0 0-.09 2.556 2.773 2.556 0 0 2.837 0 2.837-2.556 0-.012.09-2.594-2.837-2.594zm0 3.667c-.6 0-1.073-.486-1.073-1.074 0-.6.485-1.073 1.073-1.073.6 0 1.074.486 1.074 1.073a1.08 1.08 0 0 1-1.074 1.074zM25.086 10.185v.473s-.485-.639-1.405-.639c0 0-2.378-.102-2.378 2.569 0 0-.025 2.492 2.314 2.492 0 0 .945.038 1.47-.64v.397s.114 1.227-1.074 1.227h-.41v1.482h.653s2.453.026 2.453-2.62v-4.728h-1.623v-.013zm-1.01 3.502c-.6 0-1.073-.486-1.073-1.074 0-.6.486-1.073 1.074-1.073.6 0 1.073.486 1.073 1.073a1.064 1.064 0 0 1-1.073 1.074z" fill="#ED6E17"/>
</svg>
