<svg width="143" height="58" fill="none" xmlns="http://www.w3.org/2000/svg">
  <path
    d="M44.887 8.999a25.509 25.509 0 0 0-8.636-6.605A25.406 25.406 0 0 0 25.467 0C11.402 0 0 11.404 0 25.472A25.379 25.379 0 0 0 5.863 41.73a25.409 25.409 0 0 0 19.61 9.213c.202 0 .41-.012.612-.018v6.152s19.567-6.495 23.906-24.719c.618-2.191.949-4.505.949-6.892 0-6.275-2.283-12.023-6.053-16.467z"
    fill="#3BB549" />
  <g filter="url(#a)">
    <path
      d="M42.818 25.625c0-3.38-.967-6.532-2.638-9.195a17.368 17.368 0 0 0-10.796-7.7 17.314 17.314 0 0 0-15.436 3.924c-.122.11-.238.226-.36.336-3.367 3.165-5.472 7.652-5.472 12.635 0 3.269.906 6.323 2.479 8.937 3.035 5.044 8.562 8.417 14.872 8.417 4.896 0 9.315-2.032 12.473-5.295a17.316 17.316 0 0 0 4.878-12.06z"
      fill="url(#b)" />
  </g>
  <g filter="url(#c)">
    <path
      d="M28.551 24.18c-.33.171-.348.318-.648.447-.22.092-.588.11-1.255-.318-.251-.184-.667-.429-1.206-.46-.642-.03-1.108.264-1.603.57-2.663 1.634-2.816 1.353-3.073 1.873-.483.973.166 1.708-.483 2.853-.086.153-.288.47-.166.649.056.079.282.048.863.06 1.573.025 1.861-.66 3.159-.642 1.297.018.96.973 1.279 1.298.318.324 2.748.483 3.807-.533.544-.52.954-1.047 1.224-1.653.14-.318.428-1.047.404-2.02-.019-.82-.043-1.61-.637-2.02-.459-.337-1.181-.361-1.665-.104z"
      fill="#3BB549" />
  </g>
  <g filter="url(#d)">
    <path
      d="M21.072 8.84a17.313 17.313 0 0 0-7.118 3.813c-.122.11-.238.227-.36.337-3.367 3.165-5.472 7.652-5.472 12.635 0 1.138.116 2.246.324 3.318.612-.337 2.16-1.298 2.76-2.774.11-.275.239-.22.3-1.689.27-6.458 2.191-1.781 4.51.226 2.327 2.015 3.098-2.736 2.308-4.18-.79-1.445.943-2.412 2.932-1.99 1.989.422.765-3.783-.777-6.6-.465-.85-.398-1.242-.306-1.707.116-.539.453-1.004.9-1.39z"
      fill="#3BB549" />
  </g>
  <g filter="url(#e)">
    <path
      d="M40.021 24.443c-1.236-1.07-2.76-3.067-2.301-4.615.214-.723.893-1.133 1.86-1.708.423-.251.845-.44 1.23-.582-.195-.373-.41-.747-.63-1.102a17.393 17.393 0 0 0-10.564-7.645c-.844.967-1.413 2.222-1.383 3.464.025.9.349 1.041 3.183 5.534 1.683 2.663 1.787 2.957 2.479 3.587 1.23 1.12 2.093 1.28 2.705 2.486.104.208.171.392.208.563.25 1.114.196 1.855.22 2.277.08 1.353 1.983 1.586 3.428 3.19.569.624.936 1.322 1.187 1.989a17.365 17.365 0 0 0 1.157-5.803c-.851-.35-1.836-.82-2.779-1.635z"
      fill="#3BB549" />
  </g>
  <path
    d="m16.935 46.101 12.645-1.904s3.244-.3 5.245-2.4l8.11-7.835s1.15-1.26.257-2.62c0 0-1.023-1.28-2.504-.092l-6.622 5.369a13.994 13.994 0 0 1-10.086 4.285c-5.105 0-9.579-2.73-12.033-6.807A9.532 9.532 0 0 0 10.393 36l-4.67 6.005a23.785 23.785 0 0 0 7.968 6.238c.514-.716 1.592-1.935 3.244-2.143z"
    fill="#fff" />
  <path
    d="m31.68 37.635-9.322-.018s-1.28.128-1.561-1.414c0 0-.184-1.506 1.854-1.818l6.017-1.506s1.579-.276 1.487-1.782c0 0 .11-1.781-2.711-1.334-.588.092-11.323 2.057-11.323 2.057s-2.154.385-4.162 2.277c2.455 4.077 6.922 6.807 12.033 6.807 3.96 0 7.534-1.647 10.086-4.285l-.275.227c-.918.71-2.124.79-2.124.79z"
    fill="#fff" />
  <g clip-path="url(#f)" fill="#003D50">
    <path
      d="M70.374 40.882h-.861v7.99h.86v-7.99zM65.841 43.92a1.727 1.727 0 0 1-.301.746 3.591 3.591 0 0 1-.35.428c-.198.22-.407.434-.622.648-.215.214-.455.44-.72.679l.566.58c.295-.268.554-.52.775-.74.222-.22.425-.433.603-.629.141-.147.252-.275.332-.379.08-.104.141-.208.184-.306h.007c.037.086.104.19.203.306.098.116.209.239.332.373.172.177.35.367.547.556.197.196.443.428.738.697l.566-.58c-.258-.227-.492-.428-.683-.618-.197-.183-.387-.38-.572-.58-.147-.172-.277-.319-.369-.441a1.739 1.739 0 0 1-.215-.36 1.47 1.47 0 0 1-.099-.368 3.238 3.238 0 0 1-.024-.452v-1.137h1.679v-.74h-4.274v.746h1.728v1.137a4.367 4.367 0 0 1-.031.434zM74.906 48.873h.873v-3.174h3.254v-.727h-1.36c.08-.434.142-.868.185-1.303.043-.434.062-.855.062-1.271v-1.021h-5.338v.752h4.47v.47a10.58 10.58 0 0 1-.252 2.372H71.66v.728h3.253v3.174h-.006zM85.097 42.27h-4.354v1.883H86.1v-.697h-4.515v-.52h4.36v-1.853H80.7v.691h4.397v.495zM80.73 47.044v1.89h5.492v-.691H81.58v-.52h4.41v-1.865h-5.302v.697h4.46v.49H80.73zM87.053 44.648h-7.374v.709h7.374v-.71zM93.652 48.873h.873v-3.174h3.254v-.727h-1.36c.08-.434.142-.868.185-1.303.043-.434.061-.855.061-1.271v-1.021h-5.338v.752h4.471v.47a10.602 10.602 0 0 1-.252 2.372h-5.148v.728h3.254v3.174zM103.105 42.062h-1.87v-1.125h-.861v1.125h-1.919v.727h4.65v-.727zM101.616 43.376c-.24-.098-.51-.14-.818-.14a2.27 2.27 0 0 0-.818.14c-.24.098-.443.22-.609.38a1.651 1.651 0 0 0-.381.543c-.086.202-.13.41-.13.618v.501c0 .208.044.416.13.618.086.201.215.379.381.538a1.9 1.9 0 0 0 .61.379c.239.097.51.14.817.14.301 0 .572-.049.818-.14.24-.098.443-.22.615-.38.166-.158.295-.336.381-.537.087-.202.13-.41.13-.618v-.501c0-.208-.043-.416-.13-.618a1.65 1.65 0 0 0-.381-.544 1.999 1.999 0 0 0-.615-.379zm.32 1.944c0 .318-.099.575-.308.764-.203.19-.479.288-.83.288-.35 0-.627-.098-.83-.288-.203-.189-.308-.446-.308-.764v-.312c0-.318.105-.574.308-.77.203-.196.48-.287.83-.287.351 0 .627.098.83.287.203.196.308.453.308.77v.312zM104.716 44.8h1.236v-.745h-1.236v-3.173h-.861v7.99h.861v-4.071zM112.76 43.278h-4.348V41.2h-.855v2.806h5.203v-.728zM113.818 44.923h-7.374v.727h7.374v-.727zM107.508 46.378v2.409h5.4v-.746h-4.539v-1.663h-.861zM119.864 49a5.042 5.042 0 0 0 1.98 0c.307-.066.572-.158.799-.286a1.44 1.44 0 0 0 .529-.459 1.05 1.05 0 0 0 .191-.618v-.311c0-.233-.062-.434-.191-.618a1.685 1.685 0 0 0-.529-.458 2.853 2.853 0 0 0-.799-.294 4.617 4.617 0 0 0-.99-.098c-.357 0-.683.03-.99.098a2.86 2.86 0 0 0-.8.294 1.561 1.561 0 0 0-.529.458 1.024 1.024 0 0 0-.191.618v.311c0 .233.062.44.191.618.129.183.308.336.529.459.228.128.492.22.8.287zm-.665-1.626c0-.11.043-.213.129-.317.087-.098.203-.19.351-.257.148-.073.32-.129.523-.171a3.143 3.143 0 0 1 1.304 0c.203.042.375.098.522.17.148.074.265.16.351.258a.493.493 0 0 1 .129.317v.208a.47.47 0 0 1-.129.318 1.125 1.125 0 0 1-.351.257 2.163 2.163 0 0 1-.522.171 3.143 3.143 0 0 1-1.304 0 2.187 2.187 0 0 1-.523-.17 1.136 1.136 0 0 1-.351-.258.48.48 0 0 1-.129-.318v-.208zM124.538 44.562h-3.697v-1.571h-.867v1.571h-2.81v.728h7.374v-.728z" />
    <path
      d="M122.57 42.227a7.75 7.75 0 0 1-.203 1.742l.854.098c.037-.16.068-.324.099-.501.031-.178.049-.349.067-.514a6.45 6.45 0 0 0 .037-.47c.007-.148.013-.27.013-.361v-1.015h-5.308v.727h4.441v.294zM132.557 44.733h-3.247v-.825h2.171v-.728h-4.354V41.91h4.299v-.728h-5.148v2.727h2.159v.825h-3.254v.728h7.374v-.728zM130.7 46.341a2.89 2.89 0 0 0-.787-.305 4.479 4.479 0 0 0-1.039-.11c-.382 0-.732.036-1.04.11a2.776 2.776 0 0 0-.793.3 1.59 1.59 0 0 0-.505.452 1.023 1.023 0 0 0-.172.574v.294c0 .202.056.391.172.568.117.178.283.33.505.459.221.128.479.232.793.306.308.073.658.11 1.04.11.381 0 .731-.037 1.039-.11.314-.074.578-.178.793-.306a1.59 1.59 0 0 0 .505-.453.985.985 0 0 0 .172-.562v-.294c0-.207-.062-.397-.179-.574a1.522 1.522 0 0 0-.504-.459zm-.172 1.272a.471.471 0 0 1-.123.3 1.06 1.06 0 0 1-.338.25c-.148.074-.32.129-.523.171a3.277 3.277 0 0 1-.67.068c-.246 0-.468-.025-.671-.068a2.187 2.187 0 0 1-.523-.17 1.083 1.083 0 0 1-.338-.251.471.471 0 0 1-.123-.3v-.19a.47.47 0 0 1 .123-.3 1.06 1.06 0 0 1 .338-.25c.148-.073.32-.128.523-.171a3.28 3.28 0 0 1 .671-.067c.246 0 .467.024.67.067.203.043.375.104.523.171.147.074.258.16.338.25a.47.47 0 0 1 .123.3v.19zM140.208 40.882h-.849v7.99h.849v-7.99zM136.586 44.501h1.181v3.986h.842v-7.44h-.842v2.708h-1.181v.746z" />
    <path
      d="M134.728 44.293c-.055.22-.172.44-.35.666a8.439 8.439 0 0 1-.621.722c-.228.238-.474.477-.732.727l.584.581c.234-.238.455-.47.671-.703.215-.232.412-.452.584-.66.086-.104.166-.202.233-.3a.906.906 0 0 0 .142-.275h.006c.031.086.074.177.142.275.061.098.141.196.227.3.172.208.357.41.547.611.191.202.4.416.634.648l.584-.574a14.7 14.7 0 0 1-.689-.691c-.196-.214-.387-.44-.578-.679a2.228 2.228 0 0 1-.363-.66 2.323 2.323 0 0 1-.098-.697v-.77h1.371v-.722h-1.371v-1.04h-.836v1.04h-1.458v.721h1.458v.77c.006.252-.025.49-.087.71zM138.234 24.686c-1.138-.887-2.743-1.37-4.773-1.425a45.402 45.402 0 0 0-1.519-.03h-2.743c-.479 0-.978.012-1.5.03-2.03.061-3.635.538-4.773 1.425-1.168.91-1.759 2.225-1.759 3.913 0 1.68.591 3.014 1.753 3.95 1.138.916 2.749 1.412 4.779 1.473.522.018 1.021.03 1.494.043.474.006.935.012 1.384.012.449 0 .904-.006 1.371-.012.468-.013.966-.025 1.507-.043 2.03-.061 3.641-.557 4.779-1.474 1.162-.941 1.753-2.268 1.753-3.95.006-1.687-.591-3.001-1.753-3.912zm-2.184 3.913c0 .721-.221 1.235-.67 1.57-.486.355-1.162.551-2.023.588-.535.018-1.027.03-1.47.043-.892.018-1.716.018-2.62 0-.455-.013-.941-.025-1.458-.043-.879-.037-1.562-.233-2.035-.587-.443-.336-.665-.85-.665-1.571 0-.722.216-1.235.659-1.56.473-.348 1.162-.538 2.035-.574.517-.018 1.003-.03 1.452-.03h2.632c.443 0 .929.012 1.464.03.861.037 1.543.226 2.023.575.455.324.676.831.676 1.559zM135.208 10.917a.8.8 0 0 1 .006.135v7.043h1.359c.831 0 1.476-.226 1.919-.673.443-.446.664-1.009.664-1.657V9.72c0-.77-.252-1.34-.756-1.682-.461-.318-1.058-.483-1.771-.483H121.5v3.35h13.505c.099 0 .16.007.203.013z" />
    <path
      d="M130.823 18.59v-4.836h-3.942v4.836h-8.586v3.35h23.038c.499 0 .905-.159 1.206-.47.301-.312.455-.764.455-1.345V18.59h-12.171zM77.495 23.506c-.46-.471-.904-.924-1.316-1.37-.412-.434-.805-.88-1.168-1.327a31.99 31.99 0 0 1-1.101-1.424 4.92 4.92 0 0 1-.523-.93 2.78 2.78 0 0 1-.221-1.137v-4.903h3.8c.425 0 .819-.14 1.163-.41.369-.293.56-.77.56-1.424V9.064H63.867v3.35h5.381v5.02a3.523 3.523 0 0 1-.744 2.152c-.738.997-1.5 1.951-2.27 2.837a47.342 47.342 0 0 1-2.767 2.923l-.252.238 1.433 1.315c.166.147.344.275.529.379.184.104.393.159.615.159.043 0 .092 0 .141-.006.178-.018.357-.067.541-.147.203-.085.406-.232.622-.452a33.846 33.846 0 0 0 2.324-2.544c.603-.746 1.23-1.522 1.882-2.335.59.733 1.2 1.449 1.802 2.134a44.286 44.286 0 0 0 2.38 2.47c.658.593 1.335.678 1.876.421.19-.091.357-.208.498-.348l1.378-1.4-.24-.233a86.03 86.03 0 0 1-1.5-1.491zM85.17 31.038c0 .63-.202 1.174-.596 1.62-.406.459-1.02.691-1.814.691h-1.495V7.365h3.912v23.673h-.006zM90.066 19.831v3.35h10.394v10.296h1.525c.775 0 1.378-.22 1.784-.654.399-.428.602-.966.602-1.602v-8.04h8.813c.468 0 .855-.177 1.15-.525.283-.33.431-.783.431-1.333v-1.492H90.066zM110.091 8.594c-.437-.349-1.027-.52-1.747-.52H93.277v3.35h13.395c.08 0 .135.007.172.007v7.043h1.359c.83 0 1.476-.226 1.919-.679.443-.452.664-1.015.664-1.669V10.33c0-.783-.234-1.37-.695-1.736z" />
  </g>
  <defs>
    <filter id="a" x=".116" y=".276" width="50.703" height="50.703" filterUnits="userSpaceOnUse"
      color-interpolation-filters="sRGB">
      <feFlood flood-opacity="0" result="BackgroundImageFix" />
      <feColorMatrix in="SourceAlpha" values="0 0 0 0 0 0 0 0 0 0 0 0 0 0 0 0 0 0 127 0" result="hardAlpha" />
      <feOffset />
      <feGaussianBlur stdDeviation="4" />
      <feColorMatrix values="0 0 0 0 1 0 0 0 0 1 0 0 0 0 1 0 0 0 1 0" />
      <feBlend in2="BackgroundImageFix" result="effect1_dropShadow" />
      <feBlend in="SourceGraphic" in2="effect1_dropShadow" result="shape" />
    </filter>
    <filter id="c" x="17.079" y="20.847" width="18.775" height="14.909" filterUnits="userSpaceOnUse"
      color-interpolation-filters="sRGB">
      <feFlood flood-opacity="0" result="BackgroundImageFix" />
      <feColorMatrix in="SourceAlpha" values="0 0 0 0 0 0 0 0 0 0 0 0 0 0 0 0 0 0 127 0" result="hardAlpha" />
      <feOffset dx="1" dy="1" />
      <feGaussianBlur stdDeviation="2" />
      <feColorMatrix values="0 0 0 0 0 0 0 0 0 0 0 0 0 0 0 0 0 0 0.25 0" />
      <feBlend in2="BackgroundImageFix" result="effect1_dropShadow" />
      <feBlend in="SourceGraphic" in2="effect1_dropShadow" result="shape" />
    </filter>
    <filter id="d" x="5.122" y="5.839" width="22.169" height="28.103" filterUnits="userSpaceOnUse"
      color-interpolation-filters="sRGB">
      <feFlood flood-opacity="0" result="BackgroundImageFix" />
      <feColorMatrix in="SourceAlpha" values="0 0 0 0 0 0 0 0 0 0 0 0 0 0 0 0 0 0 127 0" result="hardAlpha" />
      <feOffset dx="1" dy="1" />
      <feGaussianBlur stdDeviation="2" />
      <feColorMatrix values="0 0 0 0 0 0 0 0 0 0 0 0 0 0 0 0 0 0 0.25 0" />
      <feBlend in2="BackgroundImageFix" result="effect1_dropShadow" />
      <feBlend in="SourceGraphic" in2="effect1_dropShadow" result="shape" />
    </filter>
    <filter id="e" x="25.232" y="5.791" width="22.568" height="31.09" filterUnits="userSpaceOnUse"
      color-interpolation-filters="sRGB">
      <feFlood flood-opacity="0" result="BackgroundImageFix" />
      <feColorMatrix in="SourceAlpha" values="0 0 0 0 0 0 0 0 0 0 0 0 0 0 0 0 0 0 127 0" result="hardAlpha" />
      <feOffset dx="1" dy="1" />
      <feGaussianBlur stdDeviation="2" />
      <feColorMatrix values="0 0 0 0 0 0 0 0 0 0 0 0 0 0 0 0 0 0 0.25 0" />
      <feBlend in2="BackgroundImageFix" result="effect1_dropShadow" />
      <feBlend in="SourceGraphic" in2="effect1_dropShadow" result="shape" />
    </filter>
    <radialGradient id="b" cx="0" cy="0" r="1" gradientUnits="userSpaceOnUse"
      gradientTransform="matrix(17.3491 0 0 17.3524 25.47 25.622)">
      <stop offset=".112" stop-color="#008CD0" />
      <stop offset=".999" stop-color="#2861AE" />
    </radialGradient>
    <clipPath id="f">
      <path fill="#fff" transform="translate(63.215 7.365)" d="M0 0h79.785v41.734H0z" />
    </clipPath>
  </defs>
</svg>
